<svg width="24" height="24" viewBox="0 0 24 24" fill="none" xmlns="http://www.w3.org/2000/svg">
  <path d="M19.2 12.9C19.24 12.61 19.26 12.31 19.26 12C19.26 11.69 19.24 11.39 19.2 11.1L21.1 9.62C21.27 9.49 21.32 9.25 21.22 9.06L19.42 5.94C19.32 5.75 19.09 5.67 18.89 5.74L16.65 6.64C16.18 6.27 15.66 5.96 15.09 5.72L14.75 3.34C14.72 3.13 14.54 2.97 14.33 2.97H10.73C10.52 2.97 10.34 3.13 10.31 3.34L9.97 5.72C9.4 5.96 8.88 6.27 8.41 6.64L6.17 5.74C5.97 5.67 5.74 5.75 5.64 5.94L3.84 9.06C3.74 9.25 3.79 9.49 3.96 9.62L5.86 11.1C5.82 11.39 5.8 11.69 5.8 12C5.8 12.31 5.82 12.61 5.86 12.9L3.96 14.38C3.79 14.51 3.74 14.75 3.84 14.94L5.64 18.06C5.74 18.25 5.97 18.33 6.17 18.26L8.41 17.36C8.88 17.73 9.4 18.04 9.97 18.28L10.31 20.66C10.34 20.87 10.52 21.03 10.73 21.03H14.33C14.54 21.03 14.72 20.87 14.75 20.66L15.09 18.28C15.66 18.04 16.18 17.73 16.65 17.36L18.89 18.26C19.09 18.33 19.32 18.25 19.42 18.06L21.22 14.94C21.32 14.75 21.27 14.51 21.1 14.38L19.2 12.9ZM12.53 15.6C10.54 15.6 8.93 13.99 8.93 12C8.93 10.01 10.54 8.4 12.53 8.4C14.52 8.4 16.13 10.01 16.13 12C16.13 13.99 14.52 15.6 12.53 15.6Z" fill="white"/>
</svg>
